<svg width="256" height="200" viewBox="0 0 256 200" fill="none" xmlns="http://www.w3.org/2000/svg">
<path d="M161.618 199.651C209.9 178.49 255.919 130.525 255.919 67.7478C255.919 28.9527 228.76 0.738098 196.321 0.738098C162.372 0.738098 145.021 24.0152 145.021 46.5869C145.021 71.98 163.881 91.7302 191.794 91.7302C200.093 91.7302 208.391 88.9088 212.918 86.0873C212.918 117.123 186.513 153.802 145.775 172.847L161.618 199.651ZM16.7709 199.651C65.0532 178.49 111.072 130.525 111.072 67.7478C111.072 28.9527 83.9135 0.738098 51.4738 0.738098C17.5253 0.738098 0.173828 24.0152 0.173828 46.5869C0.173828 71.98 19.0341 91.7302 47.7017 91.7302C56.0003 91.7302 63.5444 88.9088 68.0708 86.0873C68.0708 117.123 41.6665 153.802 0.928241 172.847L16.7709 199.651Z" fill="#E5E7EB"/>
</svg>
